<svg width="16" height="20" viewBox="0 0 16 20" fill="none" xmlns="http://www.w3.org/2000/svg">
<path d="M5.48148 16.5701C5.24598 16.5672 5.02134 16.4858 4.8565 16.3435C4.77109 16.2757 4.70302 16.1938 4.65648 16.1028C4.60995 16.0119 4.58594 15.9139 4.58594 15.8148C4.58594 15.7157 4.60995 15.6177 4.65648 15.5268C4.70302 15.4358 4.77109 15.3539 4.8565 15.2861C5.71629 14.593 6.40396 13.7617 6.87921 12.8409C7.35447 11.9201 7.60777 10.9284 7.62428 9.92382C7.60541 8.92177 7.35097 7.93292 6.87578 7.01489C6.40059 6.09685 5.71417 5.268 4.8565 4.57662C4.77282 4.50641 4.70639 4.42288 4.66107 4.33085C4.61574 4.23881 4.5924 4.1401 4.5924 4.04039C4.5924 3.94069 4.61574 3.84198 4.66107 3.74994C4.70639 3.65791 4.77282 3.57438 4.8565 3.50416C4.9395 3.43338 5.03825 3.37719 5.14705 3.33885C5.25585 3.3005 5.37255 3.28076 5.49041 3.28076C5.60828 3.28076 5.72497 3.3005 5.83377 3.33885C5.94257 3.37719 6.04132 3.43338 6.12432 3.50416C7.14747 4.33671 7.96482 5.33296 8.52886 6.43503C9.09291 7.53709 9.39241 8.723 9.40995 9.92382C9.39477 11.1272 9.09641 12.316 8.5323 13.4208C7.96818 14.5256 7.1496 15.5243 6.12432 16.3586C5.94819 16.4937 5.71926 16.569 5.48148 16.5701V16.5701Z" fill="#FF4C1C"/>
<path d="M9.71324 19.4999C9.59162 19.5024 9.47086 19.482 9.35969 19.4402C9.24852 19.3984 9.14971 19.3362 9.0704 19.2582C8.98726 19.1893 8.9212 19.107 8.87611 19.0162C8.83101 18.9255 8.80778 18.828 8.80778 18.7295C8.80778 18.631 8.83101 18.5336 8.87611 18.4428C8.9212 18.352 8.98726 18.2697 9.0704 18.2008C10.4464 17.1478 11.5525 15.8672 12.3203 14.4383C13.0881 13.0094 13.5014 11.4624 13.5346 9.89304C13.506 8.32589 13.0983 6.78029 12.3367 5.35149C11.575 3.92269 10.4756 2.64095 9.10612 1.58525C9.00202 1.52267 8.91501 1.44194 8.85095 1.34849C8.78688 1.25505 8.74726 1.15106 8.73476 1.04356C8.72226 0.936054 8.73716 0.827532 8.77847 0.725316C8.81977 0.6231 8.88652 0.529568 8.9742 0.451034C9.06188 0.3725 9.16846 0.31079 9.28674 0.27007C9.40502 0.22935 9.53225 0.210567 9.65985 0.214988C9.78744 0.21941 9.91243 0.246933 10.0264 0.2957C10.1403 0.344468 10.2406 0.413345 10.3204 0.497682C11.8796 1.68582 13.1317 3.13368 13.9982 4.75046C14.8648 6.36723 15.327 8.11803 15.356 9.89304C15.327 11.668 14.8648 13.4188 13.9982 15.0356C13.1317 16.6524 11.8796 18.1003 10.3204 19.2884C10.1581 19.4229 9.9404 19.4987 9.71324 19.4999V19.4999Z" fill="#FF4C1C"/>
<path d="M1.24932 13.5637C1.034 13.5629 0.825689 13.4988 0.660053 13.3824C0.502749 13.2515 0.406986 13.0767 0.390564 12.8906C0.374142 12.7044 0.438178 12.5196 0.57077 12.3704C1.28476 11.7104 1.68074 10.8482 1.68074 9.95355C1.68074 9.05892 1.28476 8.19672 0.57077 7.53674C0.494558 7.46136 0.436644 7.37402 0.400335 7.27971C0.364025 7.1854 0.35003 7.08596 0.35915 6.98708C0.377568 6.78737 0.489018 6.60203 0.668982 6.47183C0.848945 6.34163 1.08268 6.27724 1.31877 6.29282C1.55486 6.3084 1.77396 6.40267 1.92788 6.55491C2.91799 7.48881 3.46558 8.69909 3.46558 9.95355C3.46558 11.208 2.91799 12.4183 1.92788 13.3522C1.83912 13.4263 1.73266 13.4835 1.61563 13.52C1.49861 13.5565 1.37371 13.5714 1.24932 13.5637Z" fill="#FF4C1C"/>
</svg>
